<?xml version="1.0" standalone="no"?>
<!DOCTYPE svg PUBLIC "-//W3C//DTD SVG 20010904//EN"
 "http://www.w3.org/TR/2001/REC-SVG-20010904/DTD/svg10.dtd">
<svg version="1.0" xmlns="http://www.w3.org/2000/svg"
 width="700.000000pt" height="700.000000pt" viewBox="0 0 700.000000 700.000000"
 preserveAspectRatio="xMidYMid meet">
<metadata>
Created by potrace 1.11, written by Peter Selinger 2001-2013
</metadata>
<g transform="translate(0.000000,700.000000) scale(0.100000,-0.100000)"
fill="#000000" stroke="none">
<path d="M5245 6978 c34 -112 50 -181 65 -283 7 -44 14 -89 16 -100 25 -126
23 -656 -3 -698 -9 -16 -12 -251 -2 -269 17 -32 37 -19 68 45 35 73 63 171 90
317 19 102 22 120 38 232 21 145 5 363 -34 461 -45 113 -139 253 -197 292 -45
31 -50 31 -41 3z"/>
<path d="M2278 6959 c-2 -7 8 -62 24 -123 15 -61 30 -129 33 -151 3 -22 8 -47
10 -55 2 -8 7 -28 9 -45 3 -16 10 -53 15 -82 6 -29 13 -81 17 -115 3 -35 8
-74 10 -88 8 -42 15 -253 18 -530 3 -268 12 -340 41 -340 20 0 30 23 59 136
67 262 88 635 52 899 -20 142 -61 243 -159 390 -64 95 -118 138 -129 104z"/>
<path d="M2526 6962 c-3 -5 14 -67 38 -138 41 -122 89 -309 101 -399 3 -22 10
-67 15 -100 37 -238 45 -656 16 -905 -3 -19 -7 -60 -10 -90 -4 -30 -8 -66 -10
-80 -3 -14 -10 -59 -16 -100 -18 -125 -108 -536 -151 -688 -69 -248 -184 -571
-310 -869 -67 -157 -86 -200 -164 -368 -20 -44 -93 -204 -162 -355 -69 -151
-138 -304 -155 -340 -57 -124 -196 -456 -253 -605 -155 -403 -232 -649 -259
-831 -3 -21 -8 -50 -11 -64 -18 -100 -29 -316 -17 -324 15 -9 27 13 62 114 63
185 172 442 328 770 27 58 88 186 134 285 87 184 154 323 261 545 52 109 117
249 204 440 14 30 41 89 60 130 97 207 212 483 294 705 26 72 49 128 49 125 8
-30 11 -61 15 -155 3 -60 8 -128 11 -150 2 -22 7 -60 10 -85 9 -68 26 -183 39
-255 15 -79 60 -243 101 -365 151 -450 446 -830 806 -1041 66 -39 93 -48 86
-29 -1 5 -46 53 -99 107 -241 247 -403 519 -512 858 -57 176 -105 354 -123
455 -3 14 -11 61 -19 105 -8 44 -17 105 -21 135 -3 30 -7 66 -9 79 -29 184
-25 665 10 1031 2 30 7 89 10 130 3 41 8 91 10 110 2 19 7 71 11 115 3 44 8
96 9 115 12 116 20 297 20 447 0 94 2 169 4 167 7 -7 9 -19 26 -199 3 -27 10
-88 15 -135 6 -47 13 -103 15 -125 7 -55 13 -193 20 -440 9 -325 15 -510 20
-536 2 -13 6 -49 9 -79 4 -30 8 -66 11 -80 2 -14 7 -47 10 -75 5 -47 8 -66 20
-140 3 -16 7 -50 11 -75 8 -63 32 -148 45 -156 6 -3 15 -2 19 2 12 12 50 206
65 324 5 47 11 91 19 150 3 19 8 64 12 100 4 36 8 79 10 95 1 17 5 64 8 105 4
41 9 111 13 155 16 192 8 544 -17 742 -5 43 -12 100 -16 127 -3 27 -8 58 -10
70 -2 12 -7 37 -10 56 -3 19 -12 70 -20 113 -9 42 -17 88 -20 102 -2 13 -20
77 -39 142 -103 356 -198 562 -394 853 -71 107 -139 204 -149 215 -38 42 -70
66 -76 57z"/>
<path d="M5488 6964 c-3 -3 9 -50 28 -104 35 -105 59 -192 69 -250 3 -19 10
-60 16 -90 14 -78 23 -224 23 -370 1 -527 -153 -1081 -436 -1570 -30 -52 -66
-115 -80 -140 -32 -56 -102 -173 -133 -220 -12 -19 -67 -105 -122 -190 -55
-85 -167 -258 -249 -385 -83 -126 -177 -273 -209 -325 -160 -257 -413 -742
-490 -939 -42 -110 -99 -302 -116 -396 -7 -36 -16 -65 -20 -65 -22 0 -151 187
-224 325 -26 50 -60 113 -75 140 -15 28 -55 116 -89 196 -78 184 -148 296
-171 273 -42 -42 18 -313 130 -584 85 -206 207 -350 362 -426 l54 -26 -4 -165
c-4 -134 -2 -165 9 -161 7 2 16 15 20 29 4 13 23 80 43 148 107 363 349 826
782 1498 92 142 183 284 203 315 20 31 64 101 99 155 l63 98 -5 -45 c-3 -25
-8 -54 -10 -65 -2 -11 -7 -47 -10 -80 -4 -33 -9 -73 -11 -90 -2 -16 -7 -52
-10 -80 -4 -27 -8 -61 -10 -75 -2 -14 -6 -68 -10 -120 -3 -52 -8 -117 -11
-145 -7 -70 -7 -408 0 -475 15 -150 22 -195 63 -378 53 -242 152 -490 261
-657 94 -144 212 -275 345 -387 96 -80 104 -59 22 58 -84 122 -157 249 -207
364 -92 209 -179 527 -204 745 -3 28 -7 61 -10 75 -22 134 -22 580 0 775 2 17
7 62 10 100 4 39 8 86 11 105 2 19 7 60 10 90 3 30 8 71 10 90 3 19 7 53 10
76 9 78 77 387 116 531 66 239 222 661 204 552 -2 -13 -6 -64 -10 -113 -4 -50
-8 -97 -10 -105 -1 -9 -6 -47 -10 -84 -3 -37 -8 -76 -10 -85 -1 -9 -6 -48 -9
-87 -4 -38 -11 -95 -16 -125 -19 -111 -29 -197 -35 -310 -4 -63 -9 -133 -11
-155 -2 -22 -7 -146 -9 -275 -5 -241 2 -320 31 -320 28 0 84 157 154 430 29
114 75 323 85 383 3 18 12 66 20 107 8 41 17 93 21 115 3 22 12 72 19 110 8
39 17 93 21 120 3 28 8 59 10 70 2 10 6 37 9 60 3 22 8 51 10 65 3 14 7 50 10
80 3 30 7 66 10 80 2 14 7 57 10 95 4 39 8 90 10 115 27 298 27 940 1 1110 -5
30 -14 107 -21 175 -3 28 -8 66 -11 85 -3 19 -8 46 -10 60 -2 14 -7 36 -10 50
-3 14 -8 36 -10 49 -8 40 -62 233 -78 280 -33 92 -92 197 -136 243 -44 46 -60
55 -72 42z"/>
<path d="M5182 6287 c-6 -7 -20 -33 -31 -57 -11 -25 -31 -62 -43 -82 -13 -21
-55 -91 -95 -155 -39 -65 -108 -176 -152 -248 -199 -322 -761 -1275 -850
-1440 -12 -22 -26 -47 -31 -55 -15 -22 -154 -280 -213 -397 -28 -56 -52 -101
-53 -100 -1 1 -5 173 -8 382 -8 432 -14 587 -31 753 -3 28 -8 78 -11 110 -3
31 -7 66 -9 77 -2 11 -7 43 -10 70 -11 88 -16 117 -45 265 -41 204 -73 309
-130 425 -44 91 -149 235 -170 235 -11 0 -5 -31 25 -145 13 -49 27 -106 30
-125 3 -19 8 -42 10 -50 2 -8 7 -35 11 -60 33 -228 37 -316 37 -755 -3 -1180
-2 -1474 1 -1500 3 -16 7 -68 11 -115 5 -82 7 -101 20 -200 30 -230 90 -502
157 -710 30 -93 105 -256 114 -248 2 3 13 47 24 99 49 225 140 469 277 744
137 272 232 429 423 700 135 191 190 285 320 540 170 337 227 461 250 547 23
88 24 98 10 98 -18 0 -90 -80 -232 -258 -460 -579 -875 -1188 -1032 -1516 -30
-61 -56 -120 -60 -131 -6 -21 1 85 8 120 2 11 7 40 11 65 12 73 62 220 104
307 22 44 79 138 127 209 233 343 295 442 556 884 370 627 484 851 586 1157
63 187 149 543 136 564 -8 13 -30 11 -42 -4z"/>
<path d="M2245 6147 c-9 -14 -41 -89 -71 -168 -30 -79 -59 -153 -64 -164 -5
-11 -54 -132 -110 -270 -55 -137 -105 -259 -110 -270 -42 -92 -243 -651 -342
-955 -22 -65 -115 -310 -180 -475 -233 -584 -404 -1089 -487 -1435 -60 -253
-75 -352 -74 -495 0 -87 9 -194 18 -217 7 -17 27 -26 23 -10 -1 4 4 25 10 47
6 22 32 112 58 200 74 257 146 448 304 800 173 386 471 1123 613 1515 208 573
311 930 381 1310 3 14 9 48 15 77 22 113 53 363 55 442 1 91 -10 111 -39 68z"/>
<path d="M5995 5550 c-3 -5 -3 -54 2 -107 10 -123 10 -545 0 -638 -7 -62 -17
-148 -33 -270 -3 -22 -7 -47 -9 -55 -2 -8 -6 -35 -9 -60 -3 -25 -8 -56 -11
-69 -2 -13 -7 -49 -11 -80 -3 -31 -8 -59 -10 -62 -1 -3 -12 -61 -24 -130 -11
-68 -23 -135 -25 -149 -6 -36 -55 -330 -60 -360 -2 -14 -13 -79 -24 -145 -11
-66 -23 -140 -26 -165 -3 -25 -10 -70 -15 -100 -5 -30 -12 -73 -15 -95 -3 -23
-7 -50 -9 -60 -3 -19 -20 -142 -31 -235 -25 -208 -25 -653 0 -845 3 -16 7 -57
11 -90 3 -33 8 -63 11 -68 11 -18 32 -3 47 33 12 31 92 365 120 505 3 11 19
81 36 155 28 122 84 392 94 459 19 118 28 183 41 291 9 69 18 142 20 163 3 20
7 54 10 75 10 87 15 121 26 202 6 47 13 99 14 115 1 17 5 44 8 60 4 17 9 48
11 70 8 63 16 137 21 175 2 19 7 69 11 110 3 41 8 89 10 105 16 134 22 520 10
695 -7 109 -8 120 -21 210 -16 117 -105 340 -135 340 -6 0 -10 7 -10 15 0 17
-16 20 -25 5z"/>
<path d="M2199 4528 c-12 -13 -45 -72 -74 -133 -29 -60 -89 -184 -133 -275
-115 -239 -216 -447 -284 -590 -56 -116 -83 -172 -190 -400 -251 -531 -363
-804 -423 -1032 -123 -473 -159 -823 -105 -1016 39 -138 48 -148 68 -70 6 24
20 84 33 133 43 175 637 1769 748 2010 16 33 32 71 36 85 4 14 11 30 15 35 57
77 352 1064 360 1205 4 77 -10 91 -51 48z"/>
<path d="M5391 2306 c-39 -47 -33 -278 15 -512 32 -157 54 -226 114 -350 43
-89 59 -110 138 -185 96 -92 174 -149 204 -149 10 0 18 2 18 5 0 8 -44 91 -85
160 -31 52 -110 210 -135 270 -25 60 -43 116 -71 222 -41 157 -89 316 -99 328
-5 6 -11 22 -14 35 -13 66 -45 164 -58 177 -13 12 -16 12 -27 -1z"/>
<path d="M169 856 c-2 -2 -27 -6 -56 -9 -62 -6 -109 -28 -104 -48 2 -8 7 -30
12 -49 11 -41 13 -476 4 -570 -4 -36 -11 -83 -15 -104 -5 -22 -7 -44 -4 -48
10 -16 120 7 128 27 2 7 1 39 -4 71 -10 75 -11 497 0 513 4 8 11 -2 18 -26 6
-21 20 -69 32 -108 34 -111 95 -328 105 -375 15 -73 30 -92 66 -83 22 6 29 26
115 303 72 233 103 317 114 301 7 -12 5 -191 -4 -418 -4 -84 -4 -164 0 -178 8
-32 57 -42 116 -24 41 13 43 16 40 49 -7 96 -8 524 -1 585 15 122 20 158 24
166 3 4 -1 12 -8 18 -22 18 -181 1 -204 -22 -7 -7 -28 -64 -47 -127 -59 -192
-102 -315 -112 -315 -14 0 -61 144 -100 305 -20 80 -39 149 -44 154 -9 9 -64
18 -71 12z"/>
<path d="M3965 843 c-65 -10 -125 -25 -129 -32 -3 -4 2 -27 11 -52 14 -36 17
-89 17 -299 1 -221 -5 -381 -16 -431 -4 -21 81 -16 129 7 36 18 38 21 35 64
-1 25 -3 179 -4 343 -1 209 2 301 10 309 17 17 108 22 142 8 107 -44 70 -241
-47 -254 -15 -2 -31 -4 -34 -5 -11 -2 -25 -46 -21 -63 2 -11 13 -18 28 -18 72
0 91 -41 98 -207 6 -184 25 -213 128 -200 52 7 108 26 108 37 0 5 -13 22 -29
38 -34 34 -48 79 -55 179 -6 99 -29 139 -101 176 -27 14 -28 16 -10 22 124 38
182 123 155 224 -28 105 -120 155 -290 156 -58 1 -114 0 -125 -2z"/>
<path d="M4966 812 c-22 -8 -49 -21 -59 -30 -16 -15 -16 -16 4 -38 12 -13 25
-42 29 -66 8 -44 5 -469 -3 -523 -16 -94 -13 -108 19 -127 17 -10 48 -19 69
-21 l37 -2 1 393 c1 216 -1 402 -5 412 -8 22 -31 22 -92 2z"/>
<path d="M5958 816 c-21 -8 -50 -21 -64 -31 -26 -17 -26 -17 -6 -38 28 -32 34
-53 37 -134 l4 -72 -57 1 c-151 2 -250 -135 -240 -331 7 -131 57 -197 146
-188 63 7 108 56 95 105 -4 16 -11 20 -36 16 -18 -3 -37 -1 -44 3 -25 17 -41
78 -37 145 5 114 61 195 125 183 48 -9 48 -15 36 -298 -5 -123 -5 -128 16
-142 26 -17 103 -23 117 -9 5 5 5 26 -1 54 -7 28 -8 170 -5 387 5 266 3 344
-7 350 -20 13 -40 12 -79 -1z"/>
<path d="M2246 680 c-40 -26 -47 -41 -44 -97 2 -33 -1 -48 -9 -49 -7 -1 -19
-2 -27 -3 -17 -1 -27 -48 -12 -60 6 -5 20 -7 32 -5 20 3 21 0 19 -99 -3 -102
-13 -251 -20 -289 -9 -45 18 -66 97 -75 l48 -5 -7 83 c-4 46 -7 152 -7 234 l0
150 34 5 c24 3 38 13 47 29 16 34 9 40 -38 37 l-40 -3 3 83 4 84 -26 -1 c-14
0 -38 -9 -54 -19z"/>
<path d="M1319 558 c0 -2 -2 -102 -3 -223 -1 -121 -6 -244 -11 -273 l-8 -52
30 0 c36 0 98 24 109 42 5 7 7 47 5 88 -9 180 -5 287 12 313 23 36 83 42 114
11 29 -29 30 -70 3 -195 -28 -134 -27 -181 8 -219 19 -21 41 -33 74 -39 65
-12 75 -3 54 49 -13 34 -15 66 -12 180 3 77 7 144 10 148 8 14 -14 96 -32 116
-42 46 -150 62 -216 31 -34 -17 -38 -17 -55 -1 -16 15 -80 33 -82 24z"/>
<path d="M6597 546 c-68 -25 -73 -34 -34 -75 41 -43 70 -86 108 -154 l28 -51
-31 -43 c-38 -53 -72 -76 -116 -79 -41 -2 -42 -3 -44 -48 -1 -22 6 -43 17 -56
41 -45 97 -15 160 86 l48 76 58 -91 c57 -89 59 -91 97 -91 24 0 52 9 72 23 38
25 50 47 26 47 -26 0 -89 70 -134 149 -23 40 -42 78 -42 83 0 16 77 117 127
166 24 24 40 48 37 54 -6 9 -87 4 -116 -8 -7 -3 -29 -37 -48 -75 -38 -79 -40
-78 -82 8 -23 49 -61 93 -80 93 -7 -1 -30 -7 -51 -14z"/>
<path d="M1030 543 c-76 -12 -170 -59 -153 -77 3 -3 29 -6 58 -6 64 0 133 -33
158 -77 37 -64 37 -185 1 -256 -20 -38 -67 -58 -104 -44 -44 17 -63 60 -66
149 -3 80 8 130 35 161 13 15 13 20 1 27 -7 4 -20 5 -29 2 -88 -37 -126 -100
-125 -207 0 -83 25 -137 80 -173 69 -45 193 -38 261 14 106 81 126 281 37 370
l-34 33 27 21 c14 11 37 23 50 26 27 7 30 19 6 29 -20 8 -165 14 -203 8z"/>
<path d="M1898 540 c-97 -29 -143 -114 -109 -202 11 -30 37 -49 125 -93 65
-32 84 -61 73 -107 -7 -25 -43 -48 -76 -48 -10 0 -29 9 -42 19 -20 16 -24 28
-22 70 2 55 1 56 -45 40 -85 -29 -80 -156 7 -191 76 -31 195 -16 250 30 61 52
74 155 27 216 -13 18 -53 47 -88 66 -80 42 -98 58 -98 85 0 54 99 70 149 24
18 -17 21 -17 35 -3 24 23 20 71 -5 85 -27 14 -144 20 -181 9z"/>
<path d="M2555 538 c-52 -18 -90 -54 -120 -114 -27 -54 -29 -68 -29 -159 0
-85 3 -107 23 -148 13 -26 40 -60 59 -75 31 -23 45 -27 101 -26 81 0 133 23
163 71 21 35 29 96 14 110 -4 5 -17 -5 -28 -20 -55 -76 -166 -74 -199 4 -14
35 -3 49 38 49 39 0 128 39 155 68 34 36 48 65 54 111 12 99 -115 170 -231
129z m99 -64 c32 -32 10 -120 -40 -157 -14 -10 -40 -21 -59 -24 l-34 -5 4 54
c6 108 79 182 129 132z"/>
<path d="M2845 343 c0 -115 -4 -234 -8 -265 -7 -50 -6 -57 10 -62 23 -7 54 -1
90 17 l28 15 0 184 c0 159 2 188 18 211 12 19 26 27 47 27 40 0 51 -28 37 -98
-9 -43 -8 -55 4 -67 21 -21 70 -34 95 -25 18 7 20 16 20 103 -1 86 -3 98 -25
121 -43 46 -116 55 -180 21 -32 -16 -34 -16 -52 4 -12 13 -32 21 -52 21 l-32
0 0 -207z"/>
<path d="M3361 541 c-78 -20 -120 -67 -125 -141 -5 -59 25 -98 102 -136 34
-17 74 -40 87 -52 70 -61 -26 -158 -99 -101 -26 20 -28 26 -22 71 8 54 -2 60
-54 33 -73 -38 -67 -145 9 -181 74 -36 185 -28 252 18 55 37 79 141 47 202
-17 32 -73 75 -135 105 -84 39 -88 100 -8 115 37 7 105 -17 105 -37 0 -22 33
22 35 47 2 19 -4 31 -20 42 -29 19 -126 27 -174 15z"/>
<path d="M4634 535 c-58 -13 -126 -46 -132 -63 -2 -8 14 -12 52 -12 60 0 113
-17 145 -47 65 -60 70 -230 10 -307 -27 -35 -86 -36 -116 -4 -49 55 -57 196
-14 278 26 51 26 50 -5 44 -82 -15 -138 -97 -139 -204 -1 -141 79 -216 220
-209 164 9 266 204 191 365 -13 29 -32 56 -42 62 -25 14 -12 37 35 58 70 33
52 45 -67 49 -48 1 -110 -3 -138 -10z"/>
<path d="M5340 536 c-66 -14 -126 -42 -134 -62 -4 -11 7 -14 57 -14 79 0 133
-29 165 -88 32 -57 33 -158 4 -225 -41 -92 -123 -93 -164 -1 -27 61 -21 175
11 230 27 45 16 59 -30 40 -73 -31 -112 -101 -112 -202 0 -86 26 -141 83 -173
120 -67 275 -16 329 109 41 95 23 233 -36 280 -32 25 -25 43 26 66 69 32 53
44 -62 49 -45 1 -107 -2 -137 -9z"/>
<path d="M6257 538 c-49 -13 -94 -59 -126 -128 -22 -47 -26 -68 -26 -150 1
-86 4 -100 30 -150 40 -74 95 -104 174 -96 100 11 155 56 165 139 6 49 -11 57
-40 19 -44 -56 -139 -67 -173 -20 -40 56 -33 69 44 83 130 23 208 133 171 240
-19 56 -131 88 -219 63z m97 -64 c32 -32 10 -120 -40 -157 -14 -10 -40 -21
-58 -24 l-34 -5 4 58 c6 67 28 113 65 131 32 17 44 16 63 -3z"/>
</g>
</svg>
