<svg width="400" height="400" viewBox="0 0 400 400" fill="none" xmlns="http://www.w3.org/2000/svg">
<path d="M1.92656 372.799L1.59439 360.501C1.59439 358.548 1.37295 357.008 0.930064 355.88C0.487176 354.753 0.265733 354.145 0.265733 354.058C0.265733 353.104 1.74941 352.367 4.71675 351.846C7.72839 351.325 10.0093 351.065 11.5594 351.065C13.1538 351.065 14.0174 351.434 14.1503 352.171C16.9404 364.362 19.2877 372.821 21.1922 377.55C21.4136 378.07 21.635 378.331 21.8565 378.331C22.1222 378.331 22.3437 378.135 22.5208 377.745C25.4882 369.546 28.1012 361.433 30.3599 353.408C30.5371 352.887 30.98 352.497 31.6886 352.236C32.3972 351.933 33.6152 351.651 35.3424 351.39C37.114 351.13 38.8634 351 40.5906 351C42.3179 351 43.1815 351.347 43.1815 352.041C43.1815 352.085 43.1151 352.432 42.9822 353.082C42.8494 353.69 42.7165 354.449 42.5836 355.36C42.4508 356.271 42.2957 357.377 42.1186 358.679C41.72 361.672 41.4543 365.121 41.3214 369.025C41.2328 372.886 41.1885 376.769 41.1885 380.673L41.3214 387.506C41.3214 390.629 41.5207 392.864 41.9193 394.208C42.3622 395.51 42.5836 396.269 42.5836 396.486C42.5836 396.66 42.4286 396.876 42.1186 397.137C40.7456 398.221 38.6641 398.764 35.8739 398.764C34.1023 398.764 33.1058 398.178 32.8844 397.007C32.7515 396.399 32.6851 395.445 32.6851 394.143C32.6851 392.799 32.818 388.721 33.0837 381.91C33.3494 375.099 33.4823 370.153 33.4823 367.073C33.4823 363.95 33.3051 362.388 32.9508 362.388C32.9065 362.388 32.8844 362.409 32.8844 362.453C32.8844 362.453 32.818 362.475 32.6851 362.518C32.5522 362.561 32.1979 363.234 31.6222 364.535C31.0907 365.837 30.0056 369.047 28.3669 374.166C26.7283 379.285 25.2446 384.079 23.9159 388.547C22.5873 392.972 21.8565 395.358 21.7236 395.705C21.2365 396.876 20.3064 397.462 18.9334 397.462C18.2691 397.462 17.7376 397.224 17.339 396.746C15.9218 390.326 13.3973 381.151 9.76567 369.22L7.90554 363.299C7.81696 363.082 7.72839 362.973 7.63981 362.973C7.41837 362.973 7.26335 363.125 7.17478 363.429C6.99762 366.249 6.90904 371.802 6.90904 380.088C6.90904 388.33 7.21907 393.536 7.83911 395.705C7.8834 395.792 7.90554 395.922 7.90554 396.096C7.90554 397.007 7.17478 397.679 5.71325 398.113C4.25172 398.503 2.92306 398.699 1.72726 398.699C0.575754 398.699 0 398.438 0 397.918C0 397.874 0.110722 397.527 0.332166 396.876C0.996497 394.664 1.41724 391.454 1.59439 387.246C1.81584 383.038 1.92656 378.222 1.92656 372.799Z" fill="#462255"/>
<path d="M53.0344 373.58C51.8829 373.624 51.0414 373.667 50.5099 373.71C50.0227 373.71 49.7792 373.58 49.7792 373.32C49.7792 373.06 49.912 372.799 50.1778 372.539C53.0122 369.98 57.7954 368.7 64.5273 368.7C66.8303 368.7 68.6462 368.895 69.9748 369.286L70.6392 369.481C71.1706 369.698 71.4364 369.936 71.4364 370.197C71.4364 370.413 71.2813 370.587 70.9713 370.717C69.7755 371.064 68.624 371.628 67.5168 372.409C66.4096 373.147 65.856 373.667 65.856 373.971L66.2546 374.426C67.6718 375.207 68.7569 376.444 69.5098 378.135C70.307 379.827 70.7499 381.324 70.8385 382.625L70.9713 384.643C70.9713 388.938 69.7534 392.473 67.3175 395.25C64.8816 398.026 61.56 399.414 57.3525 399.414C55.2267 399.414 53.3887 399.046 51.8386 398.308C50.2885 397.571 49.137 396.746 48.3841 395.835C47.6754 394.881 47.0997 393.818 46.6568 392.647C46.1253 391.042 45.8596 389.393 45.8596 387.701C45.8596 385.966 46.1475 384.231 46.7232 382.495C47.3433 380.76 48.0298 379.48 48.7827 378.656C49.5799 377.832 50.4656 377.159 51.44 376.639C52.6801 375.988 53.6766 375.663 54.4295 375.663C55.1824 375.663 55.5588 375.815 55.5588 376.118L55.1602 376.769C54.1859 377.897 53.4773 379.372 53.0344 381.194C52.6358 383.016 52.4365 384.643 52.4365 386.074C52.4365 387.463 52.6136 388.851 52.968 390.239C53.3223 391.627 53.7209 392.668 54.1637 393.363C54.6066 394.013 55.116 394.512 55.6917 394.859C56.5332 395.38 57.419 395.64 58.349 395.64C59.2791 395.64 60.187 395.293 61.0728 394.599C61.9586 393.861 62.6008 392.907 62.9994 391.736C63.7966 389.567 64.1951 387.332 64.1951 385.033C64.1951 381.389 63.2429 378.569 61.3385 376.574C59.4784 374.578 56.7104 373.58 53.0344 373.58Z" fill="#462255"/>
<path d="M74.226 398.568C75.0232 393.883 75.4218 388.265 75.4218 381.714C75.4218 375.164 75.2225 370.912 74.8239 368.96C74.8239 368.396 75.4883 368.114 76.8169 368.114C78.8542 368.114 80.205 368.873 80.8693 370.392C80.9136 370.522 81.0244 370.587 81.2015 370.587C81.3787 370.587 81.5115 370.544 81.6001 370.457C82.9731 369.069 85.0989 368.375 87.9777 368.375C90.8564 368.375 93.1373 369.09 94.8203 370.522C96.5033 371.954 97.3447 374.036 97.3447 376.769C97.3447 378.417 97.1897 380.76 96.8797 383.797C96.614 386.834 96.4811 389.089 96.4811 390.564C96.4811 394.078 97.079 396.616 98.2748 398.178C98.452 398.395 98.5406 398.612 98.5406 398.829C98.5406 399.393 97.9205 399.675 96.6804 399.675C91.1886 399.675 88.4427 397.289 88.4427 392.517C88.4427 390.695 88.8635 388.157 89.7049 384.903C90.5464 381.649 90.9672 379.177 90.9672 377.485C90.9672 374.014 89.5056 372.279 86.5826 372.279C85.1653 372.279 84.0803 372.691 83.3274 373.515C82.6187 374.34 82.2201 375.294 82.1316 376.378C82.043 377.42 81.9987 379.415 81.9987 382.365C81.9987 386.877 82.1537 390.803 82.4637 394.143L82.5966 395.575C82.5966 396.79 81.7773 397.722 80.1386 398.373C78.5442 399.067 77.1491 399.414 75.9533 399.414C74.8018 399.414 74.226 399.132 74.226 398.568Z" fill="#462255"/>
<path d="M120.956 389.198C120.956 391.063 120.58 392.69 119.827 394.078C119.118 395.467 118.299 396.486 117.369 397.137C116.439 397.788 115.331 398.308 114.047 398.699C112.364 399.219 110.836 399.479 109.463 399.479C106.584 399.479 104.193 398.937 102.288 397.853C100.384 396.725 99.4317 394.946 99.4317 392.517C99.4317 391.085 99.8303 389.914 100.627 389.003C101.868 387.658 103.351 386.985 105.078 386.985C105.61 386.985 105.876 387.224 105.876 387.701C105.876 387.745 105.765 388.092 105.544 388.742C105.366 389.35 105.278 390.131 105.278 391.085C105.278 392.039 105.654 392.885 106.407 393.623C107.204 394.36 108.157 394.729 109.264 394.729C110.371 394.729 111.257 394.556 111.921 394.208C112.585 393.818 113.05 393.341 113.316 392.777C113.715 391.996 113.914 391.259 113.914 390.564C113.914 389.306 113.272 388.222 111.988 387.311C110.703 386.4 109.286 385.684 107.736 385.163C106.186 384.643 104.768 383.775 103.484 382.56C102.2 381.346 101.558 379.827 101.558 378.005C101.558 374.882 102.554 372.539 104.547 370.977C106.584 369.416 109.33 368.635 112.785 368.635C114.291 368.635 115.863 368.852 117.501 369.286C119.184 369.676 120.026 370.37 120.026 371.368C120.026 372.322 119.849 373.212 119.494 374.036C119.184 374.86 118.786 375.272 118.299 375.272C118.033 375.272 117.856 375.185 117.767 375.012C117.679 374.795 117.524 374.556 117.302 374.296C117.081 374.036 116.549 373.71 115.708 373.32C114.866 372.886 114.136 372.669 113.516 372.669C112.94 372.669 112.541 372.691 112.32 372.734C112.143 372.734 111.81 372.799 111.323 372.93C110.836 373.016 110.393 373.168 109.995 373.385C108.976 373.949 108.467 374.773 108.467 375.858C108.467 376.552 108.622 377.073 108.932 377.42C109.242 377.723 109.485 377.962 109.662 378.135C109.84 378.309 110.15 378.526 110.592 378.786C111.035 379.003 111.345 379.155 111.523 379.242C111.7 379.328 112.098 379.524 112.718 379.827C113.338 380.088 113.737 380.261 113.914 380.348C118.609 382.517 120.956 385.467 120.956 389.198Z" fill="#462255"/>
<path d="M122.6 372.734L122.8 370.131C122.844 369.741 123.154 369.546 123.73 369.546H126.055L125.789 364.34V364.08C125.789 363.082 126.564 362.127 128.114 361.216C129.664 360.305 131.082 359.85 132.366 359.85C132.764 359.85 132.964 360.023 132.964 360.371V360.436C132.787 361.607 132.609 364.622 132.432 369.481C134.381 369.481 135.621 369.437 136.153 369.351C136.684 369.264 136.972 369.22 137.016 369.22C137.326 369.22 137.481 369.481 137.481 370.001C137.481 370.522 137.238 371.194 136.75 372.019C136.263 372.799 135.732 373.212 135.156 373.255H132.366C132.322 374.73 132.299 377.224 132.299 380.738C132.299 384.209 132.322 387.072 132.366 389.328C132.454 391.584 132.543 393.297 132.632 394.469C132.72 395.597 132.809 396.508 132.897 397.202C133.03 397.896 133.119 398.395 133.163 398.699C133.252 399.002 133.296 399.197 133.296 399.284C133.296 399.718 133.008 399.957 132.432 400C130.705 400 128.978 399.761 127.251 399.284C125.568 398.807 124.726 397.983 124.726 396.811C125.656 389.523 126.121 381.693 126.121 373.32C124.925 373.32 124.017 373.363 123.397 373.45H123.331C122.932 373.45 122.689 373.212 122.6 372.734Z" fill="#462255"/>
<path d="M144.116 381.584L144.182 383.211C144.182 383.471 144.359 383.602 144.714 383.602C146.131 383.471 147.371 383.124 148.434 382.56C149.497 381.953 150.294 381.281 150.825 380.543C151.888 378.938 152.464 377.55 152.553 376.378L152.619 375.598C152.619 373.255 151.667 372.084 149.763 372.084C148.345 372.084 147.194 372.691 146.308 373.906C144.847 375.815 144.116 378.374 144.116 381.584ZM158.598 390.239C158.598 391.888 158.244 393.341 157.535 394.599C156.871 395.814 156.096 396.725 155.21 397.332C154.369 397.896 153.372 398.351 152.221 398.699C150.759 399.132 149.364 399.349 148.035 399.349C144.315 399.349 141.569 397.983 139.798 395.25C138.026 392.517 137.14 389.046 137.14 384.838C137.14 380.587 138.225 376.812 140.395 373.515C142.61 370.218 145.909 368.57 150.294 368.57C154.28 368.57 156.982 369.936 158.399 372.669C158.975 373.71 159.262 374.708 159.262 375.663C159.262 376.574 159.218 377.311 159.13 377.875C159.041 378.396 158.731 379.198 158.2 380.283C157.668 381.367 156.959 382.344 156.074 383.211C155.188 384.079 153.793 384.903 151.888 385.684C149.984 386.465 147.747 386.985 145.179 387.246C144.824 387.246 144.647 387.398 144.647 387.701C144.647 388.092 144.78 388.677 145.046 389.458C145.356 390.196 145.688 390.825 146.042 391.345C147.017 392.56 148.456 393.167 150.36 393.167C152.265 393.167 153.881 392.56 155.21 391.345C155.919 390.695 156.494 389.892 156.937 388.938C157.114 388.591 157.336 388.417 157.602 388.417C157.912 388.417 158.155 388.656 158.332 389.133C158.51 389.61 158.598 389.979 158.598 390.239Z" fill="#462255"/>
<path d="M181.876 380.673L182.142 382.951C182.142 383.775 181.345 384.187 179.75 384.187C176.517 384.187 174.901 382.994 174.901 380.608C174.901 380.044 175.056 379.263 175.366 378.266C175.676 377.268 175.831 376.4 175.831 375.663C175.831 374.925 175.609 374.296 175.166 373.776C174.724 373.212 174.081 372.93 173.24 372.93C172.398 372.93 171.668 373.233 171.048 373.841C170.472 374.405 170.118 374.99 169.985 375.598L169.719 376.509C169.453 377.853 169.32 380.109 169.32 383.276C169.32 386.4 169.365 388.873 169.453 390.695C169.542 392.473 169.63 393.71 169.719 394.404C169.808 395.054 169.852 395.445 169.852 395.575C169.852 396.66 169.165 397.527 167.792 398.178C166.419 398.872 165.046 399.219 163.674 399.219C162.301 399.219 161.614 398.937 161.614 398.373L161.946 396.356C162.566 392.582 162.876 387.658 162.876 381.584C162.876 375.511 162.655 371.39 162.212 369.22C162.212 368.7 162.677 368.44 163.607 368.44C165.999 368.44 167.593 369.242 168.39 370.847C168.435 371.021 168.501 371.108 168.59 371.108C168.722 371.108 169.032 370.912 169.52 370.522C170.981 369.351 172.708 368.765 174.701 368.765C175.942 368.765 177.182 369.004 178.422 369.481C180.946 370.479 182.208 372.561 182.208 375.728L181.876 380.673Z" fill="#462255"/>
<path d="M204.257 389.198C204.257 391.063 203.88 392.69 203.128 394.078C202.419 395.467 201.6 396.486 200.67 397.137C199.739 397.788 198.632 398.308 197.348 398.699C195.665 399.219 194.137 399.479 192.764 399.479C189.885 399.479 187.494 398.937 185.589 397.853C183.685 396.725 182.733 394.946 182.733 392.517C182.733 391.085 183.131 389.914 183.928 389.003C185.168 387.658 186.652 386.985 188.379 386.985C188.911 386.985 189.177 387.224 189.177 387.701C189.177 387.745 189.066 388.092 188.844 388.742C188.667 389.35 188.579 390.131 188.579 391.085C188.579 392.039 188.955 392.885 189.708 393.623C190.505 394.36 191.457 394.729 192.565 394.729C193.672 394.729 194.558 394.556 195.222 394.208C195.886 393.818 196.351 393.341 196.617 392.777C197.016 391.996 197.215 391.259 197.215 390.564C197.215 389.306 196.573 388.222 195.288 387.311C194.004 386.4 192.587 385.684 191.037 385.163C189.487 384.643 188.069 383.775 186.785 382.56C185.501 381.346 184.858 379.827 184.858 378.005C184.858 374.882 185.855 372.539 187.848 370.977C189.885 369.416 192.631 368.635 196.086 368.635C197.591 368.635 199.164 368.852 200.802 369.286C202.485 369.676 203.327 370.37 203.327 371.368C203.327 372.322 203.15 373.212 202.795 374.036C202.485 374.86 202.087 375.272 201.6 375.272C201.334 375.272 201.157 375.185 201.068 375.012C200.98 374.795 200.825 374.556 200.603 374.296C200.382 374.036 199.85 373.71 199.009 373.32C198.167 372.886 197.436 372.669 196.816 372.669C196.241 372.669 195.842 372.691 195.621 372.734C195.443 372.734 195.111 372.799 194.624 372.93C194.137 373.016 193.694 373.168 193.295 373.385C192.277 373.949 191.767 374.773 191.767 375.858C191.767 376.552 191.923 377.073 192.233 377.42C192.543 377.723 192.786 377.962 192.963 378.135C193.14 378.309 193.45 378.526 193.893 378.786C194.336 379.003 194.646 379.155 194.823 379.242C195.001 379.328 195.399 379.524 196.019 379.827C196.639 380.088 197.038 380.261 197.215 380.348C201.91 382.517 204.257 385.467 204.257 389.198Z" fill="#462255"/>
<path d="M241.023 373.45C240.536 373.58 240.293 373.732 240.293 373.906C240.293 374.036 240.824 374.296 241.887 374.687C242.95 375.077 243.947 375.684 244.877 376.509C245.851 377.333 246.537 378.331 246.936 379.502C247.556 381.281 247.866 383.189 247.866 385.228C247.866 387.267 248.021 388.959 248.331 390.304C248.641 391.606 249.018 392.603 249.46 393.297C250.346 394.772 251.166 395.683 251.919 396.031L252.384 396.291C252.649 396.464 252.782 396.681 252.782 396.942C252.782 397.592 251.697 398.156 249.527 398.633C247.357 399.154 245.674 399.414 244.478 399.414C242.131 399.414 240.625 398.503 239.961 396.681C239.34 394.816 239.031 391.649 239.031 387.181V383.602C239.031 379.827 237.879 377.42 235.576 376.378C234.69 375.988 233.627 375.793 232.387 375.793H232.321C231.922 375.793 231.723 375.424 231.723 374.687C231.723 373.906 231.944 373.125 232.387 372.344C232.874 371.563 233.295 371.173 233.649 371.173C235.111 371.173 236.373 370.912 237.436 370.392C238.499 369.828 239.274 369.155 239.761 368.375C240.78 366.726 241.334 365.316 241.422 364.145V363.299C241.422 361.694 241.156 360.349 240.625 359.264C240.093 358.136 239.429 357.355 238.632 356.922C237.303 356.228 235.952 355.88 234.579 355.88C233.207 355.88 232.077 355.989 231.191 356.206C229.951 356.553 229.331 356.922 229.331 357.312C228.933 362.995 228.733 368.483 228.733 373.776C228.733 379.025 228.8 383.059 228.933 385.879C229.11 388.656 229.265 390.911 229.398 392.647C229.575 394.339 229.663 395.336 229.663 395.64C229.663 396.204 229.508 396.595 229.198 396.811C227.383 398.46 224.526 399.284 220.629 399.284C219.964 399.284 219.632 399.067 219.632 398.633C219.632 398.503 219.698 398.2 219.831 397.722C220.274 396.725 220.584 393.558 220.761 388.222C220.983 382.886 221.094 378.027 221.094 373.645C221.094 369.22 221.005 365.641 220.828 362.908C220.562 358.787 220.119 356.314 219.499 355.49C219.012 354.883 218.768 354.471 218.768 354.254C218.768 353.993 219.012 353.733 219.499 353.473C222.334 352.171 227.471 351.521 234.912 351.521C240.891 351.521 245.364 353.169 248.331 356.466C249.926 358.288 250.723 360.566 250.723 363.299C250.723 364.947 250.391 366.422 249.726 367.724C249.062 369.025 248.243 370.023 247.268 370.717C245.408 372.105 243.659 372.951 242.02 373.255L241.023 373.45Z" fill="#462255"/>
<path d="M260.443 373.58C259.292 373.624 258.45 373.667 257.919 373.71C257.432 373.71 257.188 373.58 257.188 373.32C257.188 373.06 257.321 372.799 257.587 372.539C260.421 369.98 265.204 368.7 271.936 368.7C274.239 368.7 276.055 368.895 277.384 369.286L278.048 369.481C278.579 369.698 278.845 369.936 278.845 370.197C278.845 370.413 278.69 370.587 278.38 370.717C277.184 371.064 276.033 371.628 274.926 372.409C273.818 373.147 273.265 373.667 273.265 373.971L273.663 374.426C275.081 375.207 276.166 376.444 276.919 378.135C277.716 379.827 278.159 381.324 278.247 382.625L278.38 384.643C278.38 388.938 277.162 392.473 274.726 395.25C272.29 398.026 268.969 399.414 264.761 399.414C262.636 399.414 260.798 399.046 259.247 398.308C257.697 397.571 256.546 396.746 255.793 395.835C255.084 394.881 254.509 393.818 254.066 392.647C253.534 391.042 253.268 389.393 253.268 387.701C253.268 385.966 253.556 384.231 254.132 382.495C254.752 380.76 255.439 379.48 256.192 378.656C256.989 377.832 257.874 377.159 258.849 376.639C260.089 375.988 261.085 375.663 261.838 375.663C262.591 375.663 262.968 375.815 262.968 376.118L262.569 376.769C261.595 377.897 260.886 379.372 260.443 381.194C260.045 383.016 259.845 384.643 259.845 386.074C259.845 387.463 260.022 388.851 260.377 390.239C260.731 391.627 261.13 392.668 261.573 393.363C262.015 394.013 262.525 394.512 263.101 394.859C263.942 395.38 264.828 395.64 265.758 395.64C266.688 395.64 267.596 395.293 268.482 394.599C269.367 393.861 270.01 392.907 270.408 391.736C271.205 389.567 271.604 387.332 271.604 385.033C271.604 381.389 270.652 378.569 268.747 376.574C266.887 374.578 264.119 373.58 260.443 373.58Z" fill="#462255"/>
<path d="M289.5 360.891L289.102 384.773C289.102 392.235 289.345 396.703 289.833 398.178C289.965 398.438 290.032 398.699 290.032 398.959C290.032 399.479 289.39 399.74 288.105 399.74C286.821 399.74 285.382 399.414 283.787 398.764C282.237 398.156 281.462 397.354 281.462 396.356C282.348 390.282 282.791 382.17 282.791 372.019L282.525 362.062C282.436 360.848 282.171 359.807 281.728 358.939C281.329 358.071 280.931 357.507 280.532 357.247L280.001 356.922C279.69 356.748 279.535 356.553 279.535 356.336C279.535 355.729 280.488 354.991 282.392 354.124C284.341 353.212 286.223 352.757 288.039 352.757C288.748 352.757 289.146 352.996 289.235 353.473C289.412 354.601 289.5 357.073 289.5 360.891Z" fill="#462255"/>
<path d="M300.537 373.58C299.385 373.624 298.544 373.667 298.012 373.71C297.525 373.71 297.281 373.58 297.281 373.32C297.281 373.06 297.414 372.799 297.68 372.539C300.514 369.98 305.298 368.7 312.03 368.7C314.333 368.7 316.148 368.895 317.477 369.286L318.141 369.481C318.673 369.698 318.939 369.936 318.939 370.197C318.939 370.413 318.784 370.587 318.474 370.717C317.278 371.064 316.126 371.628 315.019 372.409C313.912 373.147 313.358 373.667 313.358 373.971L313.757 374.426C315.174 375.207 316.259 376.444 317.012 378.135C317.809 379.827 318.252 381.324 318.341 382.625L318.474 384.643C318.474 388.938 317.256 392.473 314.82 395.25C312.384 398.026 309.062 399.414 304.855 399.414C302.729 399.414 300.891 399.046 299.341 398.308C297.791 397.571 296.639 396.746 295.886 395.835C295.178 394.881 294.602 393.818 294.159 392.647C293.628 391.042 293.362 389.393 293.362 387.701C293.362 385.966 293.65 384.231 294.225 382.495C294.846 380.76 295.532 379.48 296.285 378.656C297.082 377.832 297.968 377.159 298.942 376.639C300.182 375.988 301.179 375.663 301.932 375.663C302.685 375.663 303.061 375.815 303.061 376.118L302.663 376.769C301.688 377.897 300.98 379.372 300.537 381.194C300.138 383.016 299.939 384.643 299.939 386.074C299.939 387.463 300.116 388.851 300.47 390.239C300.825 391.627 301.223 392.668 301.666 393.363C302.109 394.013 302.618 394.512 303.194 394.859C304.035 395.38 304.921 395.64 305.851 395.64C306.781 395.64 307.689 395.293 308.575 394.599C309.461 393.861 310.103 392.907 310.502 391.736C311.299 389.567 311.697 387.332 311.697 385.033C311.697 381.389 310.745 378.569 308.841 376.574C306.981 374.578 304.213 373.58 300.537 373.58Z" fill="#462255"/>
<path d="M335.21 368.895C336.007 368.895 336.715 369.004 337.335 369.22C338 369.394 338.354 369.481 338.398 369.481L338.797 369.155L338.531 362.062C338.443 360.848 338.177 359.807 337.734 358.939C337.291 358.071 336.893 357.507 336.538 357.247L335.94 356.922C335.675 356.748 335.542 356.553 335.542 356.336C335.542 355.685 336.56 354.926 338.598 354.058C340.679 353.191 342.296 352.757 343.447 352.757C344.599 352.757 345.219 352.996 345.307 353.473C345.529 354.948 345.64 357.768 345.64 361.932C345.64 366.054 345.529 370.11 345.307 374.101C345.13 378.092 345.042 382.625 345.042 387.701C345.042 392.734 345.374 395.9 346.038 397.202C346.215 397.506 346.304 397.788 346.304 398.048C346.304 398.699 345.352 399.024 343.447 399.024C339.816 399.024 338 398.178 338 396.486C337.911 395.792 337.867 394.729 337.867 393.297C337.867 391.822 338 389.111 338.265 385.163C338.576 381.172 338.73 378.114 338.73 375.988C338.73 373.819 337.623 372.734 335.409 372.734C333.239 372.734 331.578 373.992 330.426 376.509C329.275 379.025 328.699 381.541 328.699 384.057C328.699 389.393 330.072 392.061 332.818 392.061C333.217 392.061 333.593 391.996 333.947 391.866C334.346 391.692 334.59 391.606 334.678 391.606C335.032 391.606 335.298 391.822 335.475 392.256C335.697 392.69 335.807 393.124 335.807 393.558C335.807 395.033 335.21 396.291 334.014 397.332C332.818 398.33 331.356 398.829 329.629 398.829C326.972 398.829 324.957 397.701 323.584 395.445C322.255 393.146 321.591 390.304 321.591 386.92C321.591 382.625 322.632 378.634 324.713 374.947C325.776 373.125 327.215 371.672 329.031 370.587C330.847 369.459 332.907 368.895 335.21 368.895Z" fill="#462255"/>
<path d="M355.612 381.584L355.678 383.211C355.678 383.471 355.855 383.602 356.21 383.602C357.627 383.471 358.867 383.124 359.93 382.56C360.993 381.953 361.79 381.281 362.322 380.543C363.384 378.938 363.96 377.55 364.049 376.378L364.115 375.598C364.115 373.255 363.163 372.084 361.259 372.084C359.841 372.084 358.69 372.691 357.804 373.906C356.343 375.815 355.612 378.374 355.612 381.584ZM370.094 390.239C370.094 391.888 369.74 393.341 369.031 394.599C368.367 395.814 367.592 396.725 366.706 397.332C365.865 397.896 364.868 398.351 363.717 398.699C362.255 399.132 360.86 399.349 359.531 399.349C355.811 399.349 353.065 397.983 351.294 395.25C349.522 392.517 348.636 389.046 348.636 384.838C348.636 380.587 349.721 376.812 351.892 373.515C354.106 370.218 357.405 368.57 361.79 368.57C365.776 368.57 368.478 369.936 369.895 372.669C370.471 373.71 370.759 374.708 370.759 375.663C370.759 376.574 370.714 377.311 370.626 377.875C370.537 378.396 370.227 379.198 369.696 380.283C369.164 381.367 368.456 382.344 367.57 383.211C366.684 384.079 365.289 384.903 363.384 385.684C361.48 386.465 359.243 386.985 356.675 387.246C356.32 387.246 356.143 387.398 356.143 387.701C356.143 388.092 356.276 388.677 356.542 389.458C356.852 390.196 357.184 390.825 357.538 391.345C358.513 392.56 359.952 393.167 361.857 393.167C363.761 393.167 365.377 392.56 366.706 391.345C367.415 390.695 367.991 389.892 368.433 388.938C368.611 388.591 368.832 388.417 369.098 388.417C369.408 388.417 369.651 388.656 369.828 389.133C370.006 389.61 370.094 389.979 370.094 390.239Z" fill="#462255"/>
<path d="M373.095 391.736L374.423 391.931C377.036 391.931 379.649 389.74 382.262 385.359C382.395 385.142 382.572 384.881 382.794 384.578C380.845 381.064 379.14 378.266 377.678 376.183C376.261 374.101 375.309 372.908 374.822 372.604L374.158 372.084C373.537 371.823 373.227 371.498 373.227 371.108C373.227 370.544 374.025 369.936 375.619 369.286C377.258 368.635 378.786 368.266 380.203 368.179C380.956 368.136 381.664 368.678 382.329 369.806C383.569 371.585 385.075 374.296 386.846 377.94V378.07C388.928 374.6 390.256 372.149 390.832 370.717C390.832 370.066 391.386 369.568 392.493 369.22C393.6 368.873 394.973 368.7 396.612 368.7C398.251 368.7 399.07 368.96 399.07 369.481C399.07 369.698 398.871 369.936 398.472 370.197C398.206 370.327 397.808 370.587 397.276 370.977C396.789 371.368 395.726 372.517 394.087 374.426C392.449 376.292 390.788 378.591 389.105 381.324C389.016 381.454 388.95 381.584 388.906 381.714C391.474 386.27 393.002 388.894 393.49 389.588C393.977 390.239 394.353 390.781 394.619 391.215C394.929 391.649 395.505 392.278 396.346 393.102C397.232 393.927 398.051 394.447 398.804 394.664C399.601 394.881 400 395.185 400 395.575C400 396.182 399.203 396.92 397.608 397.788C396.014 398.612 394.53 399.024 393.157 399.024C392.183 399.024 391.43 398.699 390.899 398.048C389.969 396.963 387.931 393.731 384.787 388.352C382.041 392.82 380.402 395.423 379.871 396.161C379.339 396.855 378.675 397.484 377.878 398.048C377.081 398.612 376.195 398.894 375.22 398.894C374.29 398.894 373.515 398.59 372.895 397.983C372.32 397.375 371.987 396.768 371.899 396.161L371.766 395.25C371.766 392.907 372.209 391.736 373.095 391.736Z" fill="#462255"/>
<path d="M145.233 6.0978C144.006 3.33653 143.699 1.9559 144.313 1.9559C145.233 1.9559 146.307 2.72292 147.535 4.25695C148.763 5.48418 149.53 6.2512 149.837 6.558C152.906 11.1601 156.282 16.2225 159.964 21.745C163.647 26.9607 167.176 33.2502 170.552 40.6136C173.928 47.977 176.997 56.5676 179.759 66.3854C182.521 75.8964 184.67 87.2483 186.204 100.441C188.045 115.475 188.352 130.355 187.125 145.081C186.204 159.501 184.516 174.075 182.061 188.802C181.754 189.415 181.447 190.949 181.14 193.404C180.833 195.858 180.22 197.085 179.299 197.085C178.685 197.085 178.071 196.011 177.457 193.864C176.844 191.409 176.537 189.722 176.537 188.802C175.923 185.427 175.309 181.438 174.695 176.836C174.082 172.234 173.468 167.478 172.854 162.57C172.547 157.354 172.24 152.445 171.933 147.843C171.933 142.934 171.933 138.639 171.933 134.957C171.933 133.73 171.78 131.122 171.473 127.133C171.473 122.838 171.32 117.929 171.013 112.407C170.706 106.884 170.092 100.901 169.171 94.4583C168.557 87.7085 167.79 81.1122 166.869 74.6692C167.483 84.1802 167.483 93.6913 166.869 103.202C166.256 112.713 165.488 122.378 164.568 132.196C163.647 141.707 162.88 151.371 162.266 161.189C161.652 170.7 161.652 180.364 162.266 190.182C163.187 209.204 167.023 228.533 173.775 248.169C180.526 267.804 191.268 284.525 205.999 298.332C207.84 300.173 208.607 301.093 208.301 301.093C207.687 301.4 206.613 301.093 205.078 300.173C194.337 294.036 185.437 286.673 178.378 278.082C171.319 269.492 165.488 260.134 160.885 250.01C156.588 239.885 153.366 229.453 151.218 218.715C149.069 207.67 147.842 196.625 147.535 185.58C147.535 184.66 147.382 183.893 147.075 183.279C147.075 182.359 147.075 181.438 147.075 180.518C140.937 198.006 134.032 214.88 126.359 231.141C118.994 247.402 111.628 263.049 104.262 278.082C97.2039 293.116 90.4521 307.383 84.0073 320.882C77.8693 334.075 72.959 346.347 69.2762 357.699C68.6624 359.233 68.2021 360 67.8952 360C67.2814 360 66.9745 359.54 66.9745 358.619C66.9745 357.699 66.9745 357.085 66.9745 356.778C67.2814 342.359 70.1969 327.325 75.7211 311.678C81.2452 295.724 87.6901 279.31 95.0556 262.435C102.728 245.254 110.707 227.766 118.994 209.971C127.28 191.87 134.492 173.461 140.63 154.746C144.313 142.78 147.382 130.355 149.837 117.469C152.599 104.583 154.287 91.697 154.901 78.8111C155.514 65.9252 155.054 53.3461 153.519 41.0738C151.985 28.4947 149.223 16.8361 145.233 6.0978ZM202.316 271.179C205.692 278.236 210.142 284.832 215.666 290.968C217.814 278.082 221.958 265.35 228.095 252.771C234.233 239.885 241.139 226.999 248.811 214.113C256.79 201.227 265.077 188.341 273.67 175.455C282.263 162.57 290.242 149.53 297.608 136.337C303.132 126.826 307.735 116.548 311.418 105.503C315.408 94.4583 318.17 83.2598 319.704 71.9079C321.546 60.2493 322.006 48.744 321.085 37.3921C320.471 26.0403 318.17 15.302 314.18 5.17739C313.259 3.64335 313.106 2.56952 313.72 1.9559C314.334 1.34229 315.254 1.8025 316.482 3.33654C318.016 4.56377 318.937 5.48419 319.244 6.0978C322.927 11.3135 325.842 18.2167 327.99 26.8073C330.446 35.0911 332.134 44.4487 333.054 54.8801C334.282 65.0048 334.896 75.743 334.896 87.0949C334.896 98.4468 334.435 109.799 333.515 121.151C332.287 136.184 329.985 152.598 326.609 170.393C323.54 188.188 319.704 204.449 315.101 219.175C314.794 219.789 314.18 221.17 313.259 223.317C312.646 225.465 311.878 226.539 310.958 226.539C310.344 226.232 309.884 225.005 309.577 222.857C309.27 220.403 309.116 218.869 309.116 218.255C309.116 214.88 309.116 210.892 309.116 206.29C309.423 201.381 309.73 196.472 310.037 191.563C310.344 186.347 310.651 181.438 310.958 176.836C311.571 171.927 312.185 167.785 312.799 164.41C313.106 162.57 313.566 158.428 314.18 151.985C315.101 145.235 315.868 137.718 316.482 129.434C312.799 138.025 309.884 145.695 307.735 152.445C305.587 159.195 303.746 165.791 302.211 172.234C300.677 178.677 299.296 185.427 298.068 192.483C297.147 199.54 296.227 207.824 295.306 217.335C294.385 226.846 293.925 236.817 293.925 247.248C294.232 257.68 295.306 267.958 297.147 278.082C299.296 288.207 302.211 298.178 305.894 307.996C309.884 317.507 314.947 326.251 321.085 334.228C322.313 336.069 322.62 337.143 322.006 337.45C321.392 337.756 320.625 337.45 319.704 336.529C309.884 328.552 302.058 319.655 296.227 309.837C290.702 299.712 286.559 289.128 283.797 278.082C281.035 267.037 279.501 255.839 279.194 244.487C279.194 232.828 279.808 221.477 281.035 210.431C281.649 206.443 282.109 202.454 282.416 198.466C283.03 194.477 283.644 190.336 284.258 186.04C277.199 197.392 270.14 208.437 263.082 219.175C256.023 229.914 249.425 240.652 243.287 251.39C237.149 261.822 231.625 272.253 226.714 282.685C222.111 292.809 218.582 302.934 216.126 313.058C215.513 314.592 215.206 315.359 215.206 315.359C214.592 315.359 214.285 314.746 214.285 313.519C214.285 312.291 214.285 311.524 214.285 311.218C214.285 308.763 214.285 306.309 214.285 303.854C214.285 301.4 214.592 298.945 215.206 296.491C212.751 295.264 210.602 294.19 208.761 293.269C206.92 292.042 205.078 290.662 203.237 289.128C201.702 287.593 200.014 285.753 198.173 283.605C196.639 281.457 194.951 278.696 193.109 275.321C191.575 272.253 190.04 268.571 188.506 264.276C186.971 259.981 185.59 255.839 184.363 251.85C183.442 247.555 182.828 244.027 182.521 241.266C182.521 238.197 182.982 236.663 183.902 236.663C184.516 236.663 185.13 237.277 185.744 238.504C186.664 239.425 187.585 240.652 188.506 242.186C189.426 243.72 190.194 245.254 190.807 246.788C191.421 248.322 191.882 249.396 192.188 250.01C193.723 253.691 195.257 257.373 196.792 261.055C198.633 264.43 200.475 267.804 202.316 271.179ZM211.983 186.04C218.735 172.848 225.64 160.115 232.699 147.843C240.064 135.264 245.895 125.292 250.192 117.929C257.558 104.736 265.23 91.8504 273.209 79.2713C281.189 66.3854 288.094 55.0336 293.925 45.2157C294.539 43.6817 295.152 42.3011 295.766 41.0738C296.687 39.8466 297.454 39.5398 298.068 40.1534C298.682 40.1534 298.835 40.9204 298.528 42.4544C298.221 43.9885 297.915 45.5225 297.608 47.0566C293.311 69.1467 285.485 90.0096 274.13 109.645C263.082 129.281 251.42 149.07 239.144 169.012C234.847 175.762 231.011 181.438 227.635 186.04C224.566 190.336 221.804 194.631 219.349 198.926C217.201 202.915 215.359 207.363 213.825 212.272C212.29 217.181 211.216 223.471 210.602 231.141C211.83 227.766 213.211 224.545 214.745 221.476C216.28 218.408 217.814 215.494 219.349 212.732C227.942 198.006 237.609 183.279 248.351 168.552C259.092 153.826 269.68 140.019 280.115 127.133C280.728 126.52 281.802 125.292 283.337 123.452C285.178 121.304 286.406 120.383 287.02 120.69C287.634 120.997 287.48 122.378 286.559 124.832C285.946 127.287 285.485 129.128 285.178 130.355C283.644 133.73 281.649 137.872 279.194 142.78C277.046 147.689 274.59 152.752 271.828 157.967C269.373 162.876 266.764 167.785 264.002 172.694C261.24 177.296 258.785 181.131 256.637 184.199C255.409 186.04 252.801 189.722 248.811 195.244C244.821 200.767 240.525 207.67 235.921 215.954C231.318 224.238 226.714 233.595 222.111 244.027C217.814 254.458 214.592 265.503 212.444 277.162C211.523 275.321 210.295 273.02 208.761 270.259C207.533 267.498 205.999 263.049 204.157 256.913C198.633 237.584 195.564 218.102 194.951 198.466C194.644 178.523 194.644 158.121 194.951 137.258C195.257 124.065 195.257 110.872 194.951 97.6798C194.951 84.4871 192.802 70.5273 188.506 55.8006C188.199 54.5733 188.199 53.6529 188.506 53.0393C189.12 53.0393 190.04 53.9597 191.268 55.8006C196.792 61.6299 200.935 70.2205 203.697 81.5724C206.459 92.6175 208.454 104.43 209.682 117.009C210.909 129.281 211.523 141.4 211.523 153.365C211.83 165.024 211.983 174.382 211.983 181.438V186.04ZM90.9125 146.002C96.1297 130.048 101.961 113.941 108.406 97.6798C115.157 81.419 120.988 66.8456 125.899 53.9597C126.513 52.4257 127.126 50.8917 127.74 49.3576C128.661 47.8236 129.428 47.21 130.042 47.5168C130.656 47.5168 130.809 48.5906 130.502 50.7383C130.502 52.5791 130.502 54.2665 130.502 55.8006C127.74 80.9588 122.216 105.964 113.93 130.815C105.644 155.666 96.4366 180.211 86.309 204.449C80.1711 219.789 73.5728 235.283 66.5142 250.93C59.4555 266.27 53.6245 282.991 49.021 301.093C48.4072 302.627 48.1003 303.547 48.1003 303.854C48.4072 304.161 48.4072 304.314 48.1003 304.314C47.1796 303.701 46.7193 302.32 46.7193 300.173C45.1848 290.968 46.1055 279.463 49.4814 265.657C52.8572 251.544 57.1538 237.124 62.371 222.397C67.5883 207.363 72.959 193.097 78.4831 179.597C84.0073 165.791 88.1504 154.592 90.9125 146.002ZM71.1176 255.532C78.79 238.044 87.0763 220.096 95.9763 201.687C104.876 182.972 113.469 165.177 121.756 148.303C122.063 147.383 122.83 145.695 124.057 143.241C125.592 140.786 126.973 139.712 128.2 140.019C128.814 140.019 128.968 141.4 128.661 144.161C128.354 146.922 127.894 148.917 127.28 150.144C126.359 154.439 125.131 159.655 123.597 165.791C122.063 171.62 120.221 177.756 118.073 184.199C116.231 190.336 114.237 196.472 112.088 202.608C109.94 208.437 107.945 213.346 106.104 217.335C105.183 219.175 103.495 223.164 101.04 229.3C98.8918 235.129 96.1297 242.186 92.7539 250.47C89.6849 258.754 86.309 267.651 82.6262 277.162C79.2504 286.366 76.028 295.264 72.959 303.854C69.89 312.138 67.1279 319.655 64.6728 326.405C62.5245 332.848 61.2969 337.45 60.99 340.211C60.3762 343.279 59.7624 344.813 59.1486 344.813C58.5348 344.813 58.0745 344.199 57.7676 342.972C57.7676 341.745 57.6141 340.825 57.3072 340.211C55.7728 336.529 55.0055 331.16 55.0055 324.104C55.3124 317.047 56.2331 309.53 57.7676 301.553C59.3021 293.576 61.1435 285.446 63.2917 277.162C65.7469 268.878 68.3555 261.668 71.1176 255.532ZM345.484 215.954C343.949 229.76 341.494 243.567 338.118 257.373C335.049 271.179 332.287 283.452 329.832 294.19C328.604 298.178 327.684 300.019 327.07 299.712C326.456 299.712 325.996 299.099 325.689 297.872C325.689 296.337 325.535 294.803 325.228 293.269C322.773 272.713 323.08 252.157 326.149 231.601C329.218 211.045 332.594 190.029 336.277 168.552C338.732 155.666 340.727 142.474 342.261 128.974C343.796 115.168 343.796 100.441 342.261 84.7938C342.261 83.5666 342.568 82.6462 343.182 82.0326C343.796 82.0326 344.103 82.4928 344.103 83.4132C344.409 84.0268 344.87 84.487 345.484 84.7938C350.087 91.5436 352.696 100.901 353.309 112.867C354.23 124.525 354.23 136.798 353.309 149.684C352.389 162.57 351.008 174.995 349.166 186.961C347.632 198.926 346.404 208.591 345.484 215.954ZM136.947 40.1534C136.333 33.7105 135.413 27.7277 134.185 22.2052C133.264 16.6827 132.037 11.0067 130.502 5.17739C130.195 4.56376 130.042 3.79674 130.042 2.87633C130.042 1.95591 130.195 1.49569 130.502 1.49569C131.423 1.49569 132.344 1.95591 133.264 2.87633L135.106 4.71718C138.482 9.31929 141.244 13.9214 143.392 18.5235C145.54 22.8188 146.921 30.0288 147.535 40.1534C147.842 44.1419 147.842 49.0508 147.535 54.8801C147.228 60.7095 146.614 66.232 145.694 71.4477C145.08 76.6635 144.159 81.1122 142.932 84.7938C142.011 88.4755 141.09 90.163 140.169 89.8562C139.556 89.8562 139.095 89.0892 138.788 87.5551C138.482 85.7143 138.175 83.72 137.868 81.5724C137.868 79.4247 137.868 77.2771 137.868 75.1294C137.868 72.675 137.868 70.9875 137.868 70.0671C137.868 64.8514 137.868 59.9425 137.868 55.3404C137.868 50.4314 137.561 45.3691 136.947 40.1534ZM305.434 34.1707C305.127 28.6481 304.513 23.4324 303.592 18.5235C302.978 13.6146 301.904 8.55227 300.37 3.33654C300.063 2.72293 299.756 1.95592 299.449 1.03549C299.449 0.11506 299.756 -0.191754 300.37 0.115049C300.984 0.728674 301.444 1.18889 301.751 1.49569C302.365 1.8025 302.978 2.10931 303.592 2.41613L304.513 3.33654C307.889 7.63184 310.497 11.7737 312.339 15.7622C314.487 19.7507 315.715 26.3471 316.021 35.5513C316.021 38.9262 315.561 43.2215 314.64 48.4372C314.027 53.6529 313.106 58.7152 311.878 63.6242C310.958 68.2263 309.73 72.2148 308.196 75.5896C306.968 78.6577 305.74 79.8849 304.513 79.2713C303.899 78.9645 303.592 78.0441 303.592 76.5101C303.592 74.6692 303.592 72.8284 303.592 70.9875C303.592 68.8399 303.746 66.8456 304.052 65.0048C304.359 63.164 304.513 61.7833 304.513 60.8629C305.127 55.954 305.434 51.3519 305.434 47.0566C305.74 42.7613 305.74 38.466 305.434 34.1707ZM321.546 306.616C323.387 311.831 325.382 316.587 327.53 320.882C329.985 325.177 332.44 329.473 334.896 333.768C335.203 334.075 335.509 334.688 335.816 335.609C336.123 336.222 335.97 336.529 335.356 336.529C334.435 336.529 333.668 336.376 333.054 336.069C332.747 335.762 332.287 335.455 331.673 335.149C331.059 334.842 330.599 334.535 330.292 334.228C325.996 330.853 322.466 327.632 319.704 324.564C316.942 321.496 314.18 315.973 311.418 307.996C310.497 304.928 309.577 301.093 308.656 296.491C307.735 291.889 307.121 287.44 306.815 283.145C306.508 278.849 306.508 275.168 306.815 272.1C307.121 269.032 307.889 267.498 309.116 267.498C309.423 267.498 309.884 268.265 310.497 269.799C311.111 271.026 311.571 272.56 311.878 274.401C312.492 275.935 312.952 277.622 313.259 279.463C313.873 280.997 314.334 282.071 314.64 282.685C316.175 286.98 317.402 291.122 318.323 295.11C319.244 299.099 320.318 302.934 321.546 306.616Z" fill="#FFE900"/>
</svg>
